# AST/ASF file generated using VICON BodyLanguage
# -----------------------------------------------
:version 1.10
:name VICON
:units
  mass 1.0
  length 0.45
  angle deg
:documentation
   .ast/.asf automatically generated from VICON data using
   VICON BodyBuilder and BodyLanguage model FoxedUp or BRILLIANT.MOD
:root
   order TX TY TZ RX RY RZ
   axis XYZ
   position 0 0 0  
   orientation 0 -0 0 
:bonedata
  begin
     id 1 
     name lhipjoint
     direction 0.500677 -0.737119 0.453848 
     length 2.34727 
     axis 0 -0 0  XYZ
  end
  begin
     id 2 
     name lfemur
     direction 0.34202 -0.939693 0  
     length 7.53653  
     axis 0 -0 20  XYZ
    dof rx ry rz
    limits (-160.0 20.0)
           (-70.0 70.0)
           (-60.0 70.0)
  end
  begin
     id 3 
     name ltibia
     direction 0.34202 -0.939693 0   
     length 6.85572   
     axis 0 -0 20   XYZ
    dof rx
    limits (-10.0 170.0)
  end
  begin
     id 4 
     name lfoot
     direction 0.155313 -0.426718 0.890949   
     length 2.18324   
     axis -90 -1.13533e-015 20   XYZ
    dof rx rz
    limits (-45.0 90.0)
           (-70.0 20.0)
  end
  begin
     id 5 
     name ltoes
     direction 1.53474e-011 -4.21647e-011 1   
     length 1.06748   
     axis -90 -1.13533e-015 20   XYZ
    dof rx
    limits (-90.0 20.0)
  end
  begin
     id 6 
     name rhipjoint
     direction -0.632471 -0.659587 0.406111   
     length 2.62319  
     axis 0 -0 0  XYZ 
  end
  begin
     id 7 
     name rfemur
     direction -0.34202 -0.939693 0   
     length 7.21735   
     axis 0 -0 -20   XYZ
    dof rx ry rz
    limits (-160.0 20.0)
           (-70.0 70.0)
           (-70.0 60.0)
  end
  begin
     id 8 
     name rtibia
     direction -0.34202 -0.939693 0   
     length 7.02558   
     axis 0 -0 -20   XYZ
    dof rx
    limits (-10.0 170.0)
 end
 begin
     id 9 
     name rfoot
     direction -0.16057 -0.441164 0.882945   
     length 2.10014  
     axis -90 1.13533e-015 -20   XYZ
    dof rx rz
    limits (-45.0 90.0)
           (-20.0 70.0)
  end
  begin
     id 10 
     name rtoes
     direction -1.53553e-011 -4.2192e-011 1   
     length 1.02554   
     axis -90 1.13533e-015 -20   XYZ
    dof rx
    limits (-90.0 20.0)
  end
  begin
     id 11 
     name lowerback
     direction 0.0401429 0.998861 -0.0258085   
     length 1.80848   
     axis 0 -0 0   XYZ
    dof rx ry rz
    limits (-20.0 45.0)
           (-30.0 30.0)
           (-30.0 30.0)
  end
  begin
     id 12 
     name upperback
     direction -0.0130978 0.999914 -0.000352645   
     length 1.8116   
     axis 0 -0 0   XYZ
    dof rx ry rz
    limits (-20.0 45.0)
           (-30.0 30.0)
           (-30.0 30.0)
  end
  begin
     id 13 
     name thorax
     direction -0.0300198 0.999453 0.0138573   
     length 1.81778   
     axis 0 -0 0   XYZ
    dof rx ry rz
    limits (-20.0 45.0)
           (-30.0 30.0)
           (-30.0 30.0)
  end
  begin
     id 14 
     name lowerneck
     direction -0.0401726 0.999191 -0.00173647   
     length 2.10594   
     axis 0 -0 0   XYZ
    dof rx ry rz
    limits (-20.0 45.0)
           (-30.0 30.0)
           (-30.0 30.0)
  end
  begin
     id 15 
     name upperneck
     direction 0.0119835 0.998501 0.0534085   
     length 2.07325   
     axis 0 -0 0   XYZ
    dof rx ry rz
    limits (-20.0 45.0)
           (-30.0 30.0)
           (-30.0 30.0)
  end
  begin
     id 16
     name head
     direction 0.00628309 0.999826 0.0175921  
     length 2.15096  
     axis 0 -0 0   XYZ
    dof rx ry rz
    limits (-20.0 45.0)
           (-30.0 30.0)
           (-30.0 30.0)
  end
  begin
     id 17 
     name lclavicle
     direction 0.895501 0.429681 -0.115981  
     length 4.18092  
     axis 0 -0 0   XYZ
    dof ry rz
    limits (-20.0 10.0)
           (0.0 20.0)
  end
  begin
     id 18 
     name lhumerus
     direction 1 -4.48961e-011 -3.38433e-028   
     length 5.77237   
     axis 180 -30 -90   XYZ
    dof rx ry rz
    limits (-60.0 90.0)
           (-90.0 90.0)
           (-90.0 90.0)
  end
  begin
     id 19
     name lradius
     direction 1 -4.4901e-011 1.11983e-026   
     length 2.91878   
     axis 180 -30 -90   XYZ
    dof rx
    limits (-10.0 170.0)
  end
  begin
     id 20
     name lwrist
     direction 1 -4.48934e-011 1.88176e-026   
     length 1.45939   
     axis -1.23311e-014 90 90   XYZ
    dof ry
    limits (-180.0 0.0)
 end
  begin
     id 21 
     name lhand
     direction 1 -4.4895e-011 3.76352e-026   
     length 1.06566   
     axis -2.40147e-014 90 90   XYZ
    dof rx rz
    limits (-90.0 90.0)
           (-45.0 45.0)
  end
  begin
     id 22 
     name lfingers
     direction 1 -4.49005e-011 7.52705e-026   
     length 0.859162   
     axis -4.80295e-014 90 90   XYZ
    dof rx
    limits (0.0 90.0)
  end
  begin
     id 23
     name lthumb
     direction 0.707107 -6.34885e-011 0.707107   
     length 1.23359   
     axis -90 45 -9.86935e-015   XYZ
    dof rx rz
    limits (-45.0 45.0)
           (-45.0 45.0)
  end
  begin
     id 24 
     name rclavicle
     direction -0.91006 0.40451 -0.0903492   
     length 4.23293  
     axis 0 -0 0   XYZ 
    dof ry rz
    limits (-10.0 20.0)
           (-20.0 0.0)
  end
  begin
     id 25 
     name rhumerus
     direction -1 -4.4897e-011 1.7415e-027  
     length 5.49854   
     axis 180 30 90   XYZ
    dof rx ry rz
    limits (-90.0 60.0)
           (-90.0 90.0)
           (-90.0 90.0)
  end
  begin
     id 26 
     name rradius
     direction -1 -4.48963e-011 1.21259e-026   
     length 3.1186   
     axis 180 30 90   XYZ
    dof rx
    limits (-10.0 170.0)
  end
  begin
     id 27 
     name rwrist
     direction -1 -4.48967e-011 1.88176e-026   
     length 1.5593   
     axis -1.23311e-014 -90 -90   XYZ
    dof ry
    limits (-180.0 0.0)
  end
  begin
     id 28
     name rhand
     direction -1 -4.4895e-011 3.76352e-026   
     length 0.71207   
     axis -2.40147e-014 -90 -90   XYZ
    dof rx rz
    limits (-90.0 90.0)
           (-45.0 45.0)
  end
  begin
     id 29
     name rfingers
     direction -1 -4.49005e-011 7.52705e-026   
     length 0.574089   
     axis -4.80295e-014 -90 -90   XYZ
    dof rx
    limits (0.0 90.0)
  end
  begin
     id 30
     name rthumb
     direction -0.707107 -6.34982e-011 0.707107   
     length 0.824281   
     axis -90 -45 9.86935e-015   XYZ
    dof rx rz
    limits (-45.0 45.0)
           (-45.0 45.0)
  end
:hierarchy
  begin
    root lhipjoint rhipjoint lowerback
    lhipjoint lfemur
    lfemur ltibia
    ltibia lfoot
    lfoot ltoes
    rhipjoint rfemur
    rfemur rtibia
    rtibia rfoot
    rfoot rtoes
    lowerback upperback
    upperback thorax
    thorax lowerneck lclavicle rclavicle
    lowerneck upperneck
    upperneck head
    lclavicle lhumerus
    lhumerus lradius
    lradius lwrist
    lwrist lhand lthumb
    lhand lfingers
    rclavicle rhumerus
    rhumerus rradius
    rradius rwrist
    rwrist rhand rthumb
    rhand rfingers
  end

#!OML:ASF C:\ViconDB\ViconDB\414\Spring2016\042216\male.ASF
:FULLY-SPECIFIED
:DEGREES
129
root -26.2936 17.3981 10.7994 -141.417 79.4256 217.872
lowerback 1.37488 -3.81435 3.57591
upperback 0.381329 -5.04366 -1.64725
thorax -0.833873 -2.5339 -3.56648
lowerneck -3.22501 4.49633 -3.47533
upperneck -10.3611 5.68836 -9.36185
head -2.57641 3.34989 -2.51318
rclavicle 4.52484e-014 -4.77083e-015
rhumerus -25.7766 3.06209 -98.9264
rradius 29.1026
rwrist 29.4221
rhand 11.2293 -19.7956
rfingers 7.12502
rthumb 36.2914 -46.04
lclavicle 4.52484e-014 -4.77083e-015
lhumerus -40.0455 21.4699 78.3854
lradius 27.2952
lwrist -20.7869
lhand -9.9719 15.7164
lfingers 7.12502
lthumb 16.0107 45.0748
rfemur -25.4153 0.217423 26.8756
rtibia 40.7136
rfoot -12.6446 -11.1296
rtoes -15.0583
lfemur 3.28509 -8.12148 -17.6878
ltibia 15.03
lfoot -23.6043 18.3731
ltoes -10.9072
130
root -26.2221 17.3879 10.789 -139.284 79.7142 219.981
lowerback 1.24987 -3.81915 3.71687
upperback 0.396598 -5.05298 -1.78761
thorax -0.77401 -2.53785 -3.79838
lowerneck -3.29632 4.51752 -3.10656
upperneck -10.4155 5.70607 -9.42343
head -2.56859 3.34563 -2.59621
rclavicle -2.48481e-014 1.74931e-014
rhumerus -25.7491 2.97684 -99.2241
rradius 29.1009
rwrist 29.2706
rhand 11.22 -19.8718
rfingers 7.12502
rthumb 36.2825 -46.1184
lclavicle -2.48481e-014 1.74931e-014
lhumerus -40.2221 21.4073 77.9807
lradius 27.3409
lwrist -20.8107
lhand -9.83777 16.0181
lfingers 7.12502
lthumb 16.1399 45.3661
rfemur -25.6195 0.181103 27.4443
rtibia 39.2071
rfoot -12.3649 -11.0389
rtoes -15.209
lfemur 3.87857 -8.39011 -17.7142
ltibia 14.4626
lfoot -23.4663 19.1535
ltoes -11.7895
131
root -26.1474 17.3808 10.7748 -138.189 80.212 221.065
lowerback 1.16523 -3.78313 3.56283
upperback 0.382808 -5.00914 -1.93086
thorax -0.736497 -2.51499 -3.86715
lowerneck -3.3406 4.48952 -2.79146
upperneck -10.4434 5.65193 -9.65197
head -2.55713 3.31373 -2.72623
rclavicle -2.81529e-014 9.54166e-015
rhumerus -25.8283 3.02012 -99.3754
rradius 29.2128
rwrist 29.19
rhand 11.281 -20.2949
rfingers 7.12502
rthumb 36.3403 -46.527
lclavicle -2.81529e-014 9.54166e-015
lhumerus -40.3932 21.3085 77.7569
lradius 27.2554
lwrist -20.8062
lhand -9.77341 15.9395
lfingers 7.12502
lthumb 16.2018 45.2825
rfemur -25.8054 0.0799337 27.6738
rtibia 37.6946
rfoot -12.1605 -10.5923
rtoes -14.3752
lfemur 4.54734 -8.5501 -18.0962
ltibia 13.8428
lfoot -23.3724 19.851
ltoes -11.9728
132
root -26.0735 17.3725 10.7621 -136.3 80.5925 222.937
lowerback 1.12002 -3.81685 3.36327
upperback 0.333121 -5.05735 -1.77886
thorax -0.735775 -2.53924 -3.5996
lowerneck -3.28863 4.52422 -3.31061
upperneck -10.6482 5.69706 -9.53218
head -2.65274 3.36432 -2.60738
rclavicle -6.15736e-014 6.36111e-015
rhumerus -25.9417 3.42967 -99.2381
rradius 29.2114
rwrist 28.7769
rhand 11.2743 -20.2439
rfingers 7.12502
rthumb 36.3339 -46.4776
lclavicle -6.15736e-014 6.36111e-015
lhumerus -40.6642 21.76 77.7495
lradius 27.0773
lwrist -21.2616
lhand -10.0676 15.7377
lfingers 7.12502
lthumb 15.9185 45.1035
rfemur -25.9796 0.0444382 28.1004
rtibia 36.1056
rfoot -11.9289 -10.2868
rtoes -13.4561
lfemur 5.11659 -8.70335 -18.3021
ltibia 13.3682
lfoot -23.2638 20.504
ltoes -11.8416
133
root -25.9958 17.3612 10.7472 -135.116 81.1461 224.069
lowerback 0.986464 -3.82767 3.06708
upperback 0.297052 -5.07793 -1.78424
thorax -0.674789 -2.54801 -3.44836
lowerneck -3.32449 4.55251 -3.52934
upperneck -10.7202 5.73477 -9.55556
head -2.67559 3.39543 -2.57971
rclavicle 8.57135e-014 -9.54166e-015
rhumerus -25.9807 3.43304 -99.0859
rradius 29.1087
rwrist 28.9129
rhand 11.4582 -19.9103
rfingers 7.12502
rthumb 36.5081 -46.1004
lclavicle 8.57135e-014 -9.54166e-015
lhumerus -40.9556 22.0365 77.6501
lradius 27.1198
lwrist -21.2392
lhand -10.1803 15.8144
lfingers 7.12502
lthumb 15.81 45.1888
rfemur -26.1688 -0.329558 28.3572
rtibia 34.5414
rfoot -11.4875 -9.688
rtoes -13.1063
lfemur 5.72796 -8.8981 -18.7908
ltibia 12.8021
lfoot -23.2134 21.1674
ltoes -11.692
134
root -25.9221 17.3493 10.7349 -132.414 81.5628 226.626
lowerback 0.804855 -3.82295 3.10836
upperback 0.242443 -5.07602 -1.85354
thorax -0.639105 -2.54758 -3.55335
lowerneck -3.29464 4.56568 -3.45331
upperneck -10.9089 5.73425 -9.57589
head -2.7424 3.40188 -2.60836
rclavicle -5.2094e-014 -1.59028e-015
rhumerus -26.0591 3.51531 -99.2392
rradius 29.1399
rwrist 28.7676
rhand 11.5239 -20.0184
rfingers 7.12502
rthumb 36.5702 -46.1928
lclavicle -5.2094e-014 -1.59028e-015
lhumerus -41.1173 22.0801 77.4015
lradius 27.2885
lwrist -21.1769
lhand -9.61501 15.797
lfingers 7.12502
lthumb 16.3544 45.1274
rfemur -26.4753 -0.646524 28.8876
rtibia 32.9446
rfoot -10.8357 -8.90424
rtoes -13.2103
lfemur 6.14286 -8.97463 -18.9871
ltibia 12.3473
lfoot -23.1926 21.7831
ltoes -11.6542
